<svg width="57" height="57" viewBox="0 0 57 57" fill="none" xmlns="http://www.w3.org/2000/svg">
<path id="Union" fill-rule="evenodd" clip-rule="evenodd" d="M0.737551 28.5445C0.737553 13.0805 13.2736 0.544521 28.7376 0.544523C44.2015 0.544524 56.7376 13.0806 56.7376 28.5445C56.7375 44.0085 44.2015 56.5445 28.7375 56.5445C13.2736 56.5445 0.73755 44.0085 0.737551 28.5445ZM1.85755 28.5445C1.85756 13.6991 13.8921 1.66452 28.7376 1.66453C43.583 1.66453 55.6176 13.6991 55.6176 28.5445C55.6175 43.3899 43.583 55.4245 28.7375 55.4245C13.8921 55.4245 1.85755 43.3899 1.85755 28.5445ZM22.0039 36.9445L13.6177 28.5513L13.6244 28.5446L13.6176 28.5377L22.0038 20.1445L23.4887 21.6306L17.6373 27.4869L42.4576 27.4869L42.4576 29.5886L17.6239 29.5886L23.4888 35.4584L22.0039 36.9445Z" fill="black"/>
</svg>
