<svg width="154" height="25" viewBox="0 0 154 25" fill="none" xmlns="http://www.w3.org/2000/svg">
<g clip-path="url(#clip0_1_600)">
<path d="M7.96378 8.70393C7.96378 8.37424 7.8519 8.09015 7.62767 7.85072C7.40344 7.61224 7.12566 7.49205 6.79386 7.49205C5.74872 7.49205 4.66199 8.60512 3.53367 10.8308C2.48901 12.8422 1.96596 14.4408 1.96596 15.6275C1.96596 16.6997 2.33076 17.2351 3.06082 17.2351C4.08922 17.2351 5.1181 16.1961 6.1465 14.1192C6.84358 12.7016 7.39149 11.2013 7.78927 9.6189C7.90497 9.15714 7.96378 8.85215 7.96378 8.70393ZM10.9749 14.9353V14.9852C10.9586 15.018 10.95 15.0427 10.95 15.0588C10.602 15.8997 10.1454 16.6166 9.5812 17.2104C8.86787 17.9363 8.12107 18.2983 7.34129 18.2983C6.44532 18.2983 5.99781 17.7629 5.99781 16.6911C5.99781 16.4113 6.0222 16.1386 6.07192 15.875C4.96081 17.4907 3.74977 18.2983 2.43833 18.2983C1.65854 18.2983 1.04513 17.9933 0.597152 17.3838C0.199369 16.856 0 16.1885 0 15.3804C0 13.732 0.721937 11.9106 2.16485 9.91533C3.70817 7.80512 5.27588 6.75049 6.86844 6.75049C7.54878 6.75049 8.12107 7.0474 8.58579 7.64075C8.71822 7.14621 8.98405 6.89871 9.38231 6.89871C10.1454 6.89871 10.5269 7.03125 10.5269 7.29443C10.5269 7.34431 10.3361 7.93719 9.9546 9.07448C8.47726 13.4764 7.73955 16.0071 7.73955 16.6664C7.73955 16.9795 7.85525 17.1363 8.08808 17.1363C8.55185 17.1363 9.08732 16.7158 9.69308 15.875C10.2988 15.0341 10.6096 14.6137 10.6263 14.6137C10.8587 14.6137 10.9749 14.7215 10.9749 14.9353Z" fill="#8491A0"/>
<path d="M23.6171 5.04408C23.6171 3.65975 23.281 2.6664 22.6098 2.06498C21.9371 1.46308 20.9206 1.17044 19.5609 1.18707C18.499 1.18707 17.9679 1.41795 17.9679 1.87923V8.92626C18.5817 9.02555 19.0293 9.07448 19.3118 9.07448C22.1986 9.0588 23.6334 7.71486 23.6171 5.04408ZM26.5541 5.04408C26.5541 8.34146 24.3051 9.98944 19.8095 9.98944C19.2281 9.98944 18.6147 9.95714 17.9679 9.89111V14.2926C17.9679 15.8422 18.2418 16.7325 18.7892 16.9634C18.8222 16.9795 19.1789 17.0869 19.8597 17.285C20.2575 17.3838 20.4478 17.5159 20.432 17.6802C20.4153 17.8783 20.2824 17.9771 20.0333 17.9771H13.2643C13.0157 17.9771 12.8827 17.8783 12.8665 17.6802C12.8498 17.5159 13.0405 17.3838 13.4388 17.285C14.1186 17.0869 14.4753 16.9795 14.5088 16.9634C15.0562 16.7325 15.3297 15.8422 15.3297 14.2926V4.15429C15.3297 2.60465 15.0562 1.71438 14.5088 1.4835C14.4753 1.46735 14.1186 1.35951 13.4388 1.16189C13.0405 1.06308 12.8498 0.931486 12.8665 0.766165C12.8827 0.568065 13.0157 0.469727 13.2643 0.469727H20.5563C22.2818 0.469727 23.675 0.824122 24.7369 1.53291C25.9479 2.32388 26.5541 3.49443 26.5541 5.04408Z" fill="#8491A0"/>
<path d="M32.7156 17.6804C32.6988 17.8785 32.5659 17.9773 32.3173 17.9773H26.942C26.6929 17.9773 26.56 17.8785 26.5437 17.6804C26.527 17.5488 26.7178 17.4329 27.116 17.3341C27.63 17.2191 27.9871 17.0956 28.186 16.9635C28.3849 16.8319 28.493 16.469 28.5097 15.8752V14.2928V2.89324C28.5097 2.44859 28.4681 2.15547 28.3849 2.01533C28.3022 1.87566 28.0531 1.80535 27.6391 1.80535C27.008 1.80535 26.6929 1.70607 26.6929 1.50844C26.6929 1.29467 26.8918 1.14597 27.2901 1.06331C28.2525 0.865212 29.1982 0.593478 30.1276 0.247635C30.2433 0.214381 30.3351 0.197754 30.4011 0.197754C30.5665 0.197754 30.6664 0.292766 30.6999 0.482314C30.7329 0.671863 30.7496 1.07187 30.7496 1.68184V14.2928C30.7496 15.9583 30.8572 16.8481 31.0728 16.9635C31.189 17.0296 31.5461 17.1365 32.1433 17.2852C32.5415 17.4006 32.7318 17.5322 32.7156 17.6804Z" fill="#8491A0"/>
<path d="M40.0568 14.6748V11.9189C38.829 12.1489 37.9082 12.4277 37.2948 12.7555C36.2994 13.3137 35.8017 14.0843 35.8017 15.0686C35.8017 15.5935 35.9547 16.0159 36.2616 16.3356C36.5686 16.6558 36.9874 16.8154 37.5185 16.8154C38.1817 16.8154 38.7712 16.6102 39.2856 16.2002C39.7996 15.7902 40.0568 15.2814 40.0568 14.6748ZM44.6107 16.271C44.1632 17.5408 43.383 18.175 42.2719 18.175C41.0775 18.175 40.347 17.5741 40.0821 16.3698C38.8204 17.5741 37.5434 18.175 36.2492 18.175C35.4197 18.175 34.7642 17.937 34.2832 17.46C33.8018 16.9831 33.5613 16.3332 33.5613 15.5109C33.5613 14.0144 34.3741 12.8961 36.0006 12.1555C36.9295 11.7446 38.2816 11.4235 40.0568 11.1935C40.1065 9.63109 39.9822 8.61969 39.6834 8.15889C39.4348 7.74796 38.8711 7.55081 37.9914 7.56696C37.2608 7.58359 36.7799 7.81447 36.5475 8.2596C36.4318 8.67147 36.3152 9.08383 36.1995 9.4957C36.0336 9.94083 35.6769 10.1636 35.129 10.1636C34.3989 10.1636 34.0346 9.85057 34.0346 9.22349C34.0346 8.41637 34.5404 7.78976 35.5521 7.34463C36.3319 7.01494 37.2116 6.8501 38.1903 6.8501C40.8782 6.86625 42.2221 7.78739 42.2221 9.61304V15.7056C42.2221 16.594 42.4707 17.0296 42.9684 17.013C43.3003 17.013 43.578 16.8363 43.8023 16.4814C44.0265 16.1275 44.1881 15.9498 44.288 15.9498C44.387 15.9498 44.4745 15.9869 44.5491 16.061C44.6236 16.1351 44.6442 16.2059 44.6107 16.271Z" fill="#8491A0"/>
<path d="M54.3757 16.2794C53.2971 17.6751 51.9699 18.3725 50.3941 18.3725C48.7513 18.3725 47.4408 17.8528 46.4617 16.8114C45.4825 15.7711 44.9934 14.4162 44.9934 12.7473C44.9934 11.0789 45.537 9.67466 46.6237 8.53452C47.71 7.39532 49.0912 6.83285 50.767 6.84948C51.53 6.84948 52.2768 7.01433 53.0074 7.34402C53.9196 7.75637 54.3757 8.29984 54.3757 8.97632C54.3757 9.6186 54.0439 9.94022 53.3803 9.94022C52.9821 9.94022 52.6713 9.75114 52.4471 9.37157C52.2228 8.99247 52.012 8.61337 51.8126 8.2338C51.5143 7.83855 51.0988 7.64045 50.5681 7.64045C49.4728 7.64045 48.6437 8.16967 48.0796 9.22668C47.6483 10.0703 47.4327 11.095 47.4327 12.3012C47.4327 13.6233 47.6976 14.7397 48.2292 15.648C48.8594 16.772 49.7802 17.334 50.9912 17.334C51.6878 17.334 52.3519 17.0836 52.9821 16.5839C53.1145 16.467 53.5209 16.0414 54.2017 15.3079C54.2849 15.2243 54.3595 15.1825 54.4254 15.1825C54.5751 15.1825 54.6497 15.3074 54.6497 15.5563C54.6497 15.8057 54.5584 16.0466 54.3757 16.2794Z" fill="#8491A0"/>
<path d="M63.3547 10.5554C63.2548 8.59627 62.4669 7.62478 60.9905 7.64093C59.398 7.65755 58.4437 8.79485 58.1281 11.0537H61.2391C62.6663 11.0537 63.371 10.8875 63.3547 10.5554ZM65.719 11.5972C65.719 11.7792 65.6276 11.886 65.445 11.9188H64.8976H58.0291C58.0124 12.1497 58.0043 12.3231 58.0043 12.4381C58.0043 13.7906 58.2529 14.886 58.7506 15.7274C59.3807 16.7654 60.3264 17.2851 61.5881 17.2851C62.4172 17.2851 63.1224 17.1036 63.7033 16.7411C64.0021 16.543 64.441 16.1392 65.0219 15.5293C65.0879 15.4637 65.1625 15.4305 65.2456 15.4305C65.4613 15.4305 65.5698 15.5293 65.5698 15.7274C65.5698 15.7929 65.5445 15.8675 65.4952 15.9492C64.549 17.5487 63.0559 18.3397 61.0154 18.3236C59.3889 18.3065 58.0789 17.7839 57.0835 16.7535C56.088 15.7231 55.5903 14.4081 55.5903 12.8091C55.5903 11.1606 56.0794 9.76777 57.0581 8.63C58.1037 7.42715 59.4391 6.83333 61.0651 6.84995C62.3091 6.84995 63.3461 7.2205 64.1761 7.96254C65.1878 8.85233 65.7022 10.0642 65.719 11.5972Z" fill="#8491A0"/>
<path d="M80.302 1.6076C80.302 1.85463 80.215 2.07316 80.0405 2.26271C79.866 2.45226 79.6547 2.54727 79.4056 2.54727C79.0078 2.54727 78.6923 2.25891 78.4604 1.68171C78.228 1.10451 77.9211 0.816151 77.54 0.816151C76.6771 0.816151 75.9962 1.32066 75.4985 2.33017C75.3164 2.67791 75.0262 3.54679 74.6274 4.93682L73.9562 7.27031H76.4194C76.635 7.27031 76.7435 7.37245 76.7435 7.57577C76.7435 7.91591 76.5604 8.08599 76.1951 8.08599H73.7573L71.2683 17.4057C70.6869 19.5753 70.1151 21.1781 69.5514 22.2138C68.522 24.0708 67.2364 25 65.6931 25C65.1127 25 64.5982 24.8352 64.1503 24.5055C63.7023 24.1753 63.4785 23.7387 63.4785 23.1948C63.4785 22.4532 63.8146 22.0822 64.4854 22.0822C64.9444 22.0822 65.2312 22.2632 65.3455 22.6261C65.378 22.7577 65.3948 23.1121 65.3948 23.6893C65.3948 24.0684 65.5697 24.2584 65.9192 24.2584C66.6192 24.2584 67.2355 23.6323 67.7681 22.3815C68.0019 21.8385 68.2935 20.9083 68.6425 19.5914L71.6914 8.08599H69.1029C68.9538 8.08599 68.8787 7.9924 68.8787 7.8057C68.8787 7.44846 69.0365 7.27031 69.3525 7.27031H71.841C72.5037 5.14347 73.151 3.58575 73.7812 2.59668C74.8598 0.865082 76.1951 0 77.7882 0C78.3691 0 78.9079 0.123991 79.4056 0.370545C80.0032 0.667458 80.302 1.07981 80.302 1.6076Z" fill="#8491A0"/>
<path d="M82.693 9.52037C82.693 8.16835 82.2365 7.49234 81.3242 7.49234C80.2791 7.49234 79.3162 8.58925 78.4379 10.7812C77.6906 12.6444 77.3172 14.2021 77.3172 15.4548C77.3172 16.8895 77.8063 17.6064 78.786 17.6064C79.8144 17.6064 80.7601 16.4938 81.623 14.2681C82.3364 12.3888 82.693 10.8064 82.693 9.52037ZM84.5094 10.8311C84.5094 12.5456 83.9959 14.1693 82.9665 15.7024C81.8052 17.433 80.4034 18.299 78.7606 18.299C77.6825 18.299 76.853 17.87 76.2721 17.0126C75.7409 16.271 75.4756 15.3484 75.4756 14.243C75.4756 12.5456 75.9986 10.9138 77.0438 9.34744C78.2218 7.5997 79.6236 6.72607 81.2492 6.72607C82.3278 6.72607 83.1573 7.15505 83.7382 8.01158C84.2526 8.77072 84.5094 9.70991 84.5094 10.8311Z" fill="#8491A0"/>
<path d="M94.5865 8.08561C94.5865 8.38252 94.4995 8.65425 94.325 8.90223C94.1514 9.14879 93.9224 9.27278 93.6403 9.27278C93.3587 9.27278 93.1426 9.09986 92.9935 8.75354C92.8438 8.4077 92.6449 8.2343 92.3968 8.2343C91.4836 8.2343 89.9905 11.4818 87.9174 17.9768H85.9759C86.4736 16.3117 86.9713 14.6385 87.469 12.9573C88.2488 10.3032 88.6384 8.81102 88.6384 8.48133C88.6384 8.20152 88.5141 8.0609 88.2655 8.0609C87.8175 8.0609 87.3944 8.33311 86.9956 8.87706C86.8632 9.04238 86.5979 9.49511 86.2001 10.2371C86.1002 10.4347 85.9591 10.5336 85.777 10.5336C85.5279 10.5336 85.4036 10.4347 85.4036 10.2371L85.4279 10.1378C85.6436 9.31411 86.0667 8.56447 86.6978 7.88798C87.4102 7.14594 88.1656 6.77539 88.9621 6.77539C89.8408 6.77539 90.2807 7.27848 90.2807 8.28371C90.2807 8.59677 90.2228 8.98489 90.1071 9.4457C89.9905 9.84143 89.8829 10.229 89.783 10.6081C91.0437 8.0533 92.2304 6.77539 93.3415 6.77539C93.7068 6.77539 94.0056 6.90318 94.238 7.15877C94.4698 7.41435 94.5865 7.72314 94.5865 8.08561Z" fill="#8491A0"/>
<path d="M117.307 17.6807C117.291 17.8787 117.158 17.9776 116.909 17.9776H110.339C110.09 17.9776 109.957 17.8787 109.941 17.6807C109.924 17.5163 110.115 17.3843 110.513 17.2854C111.193 17.0874 111.55 16.9799 111.583 16.9638C112.131 16.733 112.404 15.8432 112.404 14.293V2.62176L105.983 17.656C105.835 18.0023 105.718 18.1751 105.635 18.1751C105.552 18.1751 105.412 17.9529 105.212 17.5078L99.6874 4.89634C99.3886 4.22081 99.0898 3.65216 98.791 3.18993L98.9406 14.293C98.9573 15.0844 98.9908 15.6203 99.0405 15.9007C99.1562 16.444 99.3972 16.7994 99.7625 16.9638C99.795 16.9799 100.152 17.0874 100.832 17.2854C101.23 17.3843 101.421 17.5163 101.405 17.6807C101.388 17.8787 101.256 17.9776 101.006 17.9776H95.6809C95.4323 17.9776 95.2989 17.8787 95.2831 17.6807C95.2659 17.5163 95.4567 17.3843 95.8554 17.2854C96.5353 17.0874 96.8919 16.9799 96.9254 16.9638C97.2897 16.7994 97.5307 16.4279 97.6464 15.8507C97.7128 15.5709 97.7463 15.0517 97.7463 14.293L97.8706 2.12675C97.6053 1.91344 97.2151 1.69824 96.7012 1.48399C96.3364 1.38518 95.9797 1.27829 95.6312 1.16238C95.2324 1.06356 95.0421 0.931972 95.0589 0.766651C95.0747 0.568551 95.208 0.470215 95.4567 0.470215H98.4429C99.5707 0.487316 100.218 0.540523 100.384 0.630784C100.549 0.721996 100.799 1.1543 101.131 1.92912L106.432 14.2683L112.156 0.841236C112.255 0.593731 112.479 0.470215 112.827 0.470215H116.909C117.158 0.470215 117.291 0.568551 117.307 0.766651C117.323 0.931972 117.133 1.06356 116.735 1.16238C116.054 1.36048 115.698 1.46784 115.665 1.48399C115.117 1.71534 114.843 2.60561 114.843 4.15477V14.293C114.843 15.8432 115.117 16.733 115.665 16.9638C115.698 16.9799 116.054 17.0874 116.735 17.2854C117.133 17.3843 117.323 17.5163 117.307 17.6807Z" fill="#8491A0"/>
<path d="M126.814 12.6235C126.814 11.252 126.589 10.1285 126.141 9.252C125.561 8.11234 124.656 7.54226 123.429 7.54226C122.201 7.54226 121.297 8.12896 120.717 9.30236C120.269 10.1784 120.045 11.2933 120.045 12.6487C120.045 13.9703 120.269 15.0696 120.717 15.9451C121.314 17.0691 122.218 17.6311 123.429 17.6311C124.656 17.6311 125.561 17.0691 126.141 15.9451C126.589 15.0696 126.814 13.9622 126.814 12.6235ZM129.202 12.4748C129.202 14.1598 128.655 15.5641 127.56 16.6881C126.465 17.8116 125.071 18.3731 123.379 18.3731C121.687 18.3731 120.318 17.8444 119.274 16.7869C118.227 15.7294 117.705 14.3499 117.705 12.6487C117.705 10.9636 118.253 9.57552 119.348 8.48478C120.442 7.39452 121.837 6.8501 123.529 6.8501C125.137 6.8501 126.486 7.38692 127.573 8.46055C128.659 9.53419 129.202 10.8724 129.202 12.4748Z" fill="#8491A0"/>
<path d="M150.68 17.6811C150.663 17.8788 150.53 17.9771 150.281 17.9771H144.906C144.657 17.9771 144.524 17.8788 144.508 17.6811C144.492 17.55 144.682 17.4346 145.08 17.3353C145.594 17.2203 145.955 17.0935 146.163 16.9538C146.37 16.8137 146.474 15.9296 146.474 14.3016V11.0954C146.474 10.0916 146.35 9.36 146.101 8.89967C145.769 8.27497 145.13 7.96238 144.184 7.96238C143.388 7.96238 142.707 8.20514 142.144 8.69017C141.579 9.17568 141.298 9.77141 141.298 10.4788V14.3016C141.314 15.2883 141.322 15.8308 141.322 15.9296C141.356 16.522 141.455 16.8669 141.621 16.9657C141.786 17.065 142.144 17.1795 142.691 17.3111C143.089 17.4099 143.279 17.5329 143.264 17.6811C143.247 17.8788 143.114 17.9771 142.866 17.9771H137.49C137.241 17.9771 137.108 17.8788 137.092 17.6811C137.075 17.55 137.266 17.4346 137.664 17.3353C138.178 17.2203 138.538 17.0935 138.747 16.9538C138.954 16.8137 139.058 15.9296 139.058 14.3016V11.0954C139.058 10.0916 138.934 9.36 138.684 8.89967C138.353 8.27497 137.714 7.96238 136.768 7.96238C135.971 7.96238 135.292 8.20514 134.728 8.69017C134.164 9.17568 133.882 9.77141 133.882 10.4788V14.3016C133.882 15.9629 133.989 16.8507 134.205 16.9657C134.321 17.0317 134.677 17.1386 135.275 17.2864C135.673 17.4013 135.864 17.5329 135.848 17.6811C135.83 17.8788 135.698 17.9771 135.45 17.9771H130.074C129.825 17.9771 129.692 17.8783 129.676 17.6802C129.659 17.5486 129.858 17.4417 130.272 17.3586C130.787 17.2598 131.144 17.1239 131.343 16.951C131.542 16.7781 131.642 15.8916 131.642 14.2925V9.56951C131.642 9.12438 131.601 8.83174 131.517 8.6916C131.434 8.55193 131.185 8.48162 130.77 8.48162C130.14 8.48162 129.825 8.38281 129.825 8.18518C129.825 7.97093 130.023 7.82224 130.421 7.73958C131.382 7.54195 132.327 7.27022 133.254 6.92342C133.404 6.89064 133.503 6.87402 133.553 6.87402C133.702 6.87402 133.793 6.98186 133.827 7.19611C133.842 7.34433 133.859 7.76476 133.876 8.45692C134.24 7.98661 134.774 7.60513 135.479 7.31297C136.183 7.02081 136.908 6.87402 137.653 6.87402C139.377 6.87402 140.454 7.50917 140.885 8.77853C141.879 7.50917 143.27 6.87402 145.06 6.87402C146.419 6.87402 147.355 7.24409 147.869 7.98471C148.432 8.79088 148.713 10.0574 148.713 11.7842V13.0184V14.3011C148.713 15.2384 148.722 15.7814 148.738 15.9291C148.772 16.522 148.871 16.8669 149.037 16.9657C149.203 17.0645 149.56 17.1795 150.108 17.3111C150.505 17.4099 150.696 17.5329 150.68 17.6811Z" fill="#8491A0"/>
<path d="M152.905 16.5652C152.857 16.5467 152.79 16.5372 152.702 16.5372H152.617V16.9225H152.754C152.835 16.9225 152.898 16.9059 152.944 16.8731C152.99 16.8408 153.013 16.7885 153.013 16.7158C153.013 16.6436 152.977 16.5933 152.905 16.5652ZM152.268 17.6303V16.3035C152.351 16.3035 152.475 16.304 152.639 16.3044C152.805 16.3049 152.896 16.3059 152.915 16.3068C153.02 16.3144 153.108 16.3372 153.178 16.3752C153.297 16.4398 153.356 16.5458 153.356 16.6916C153.356 16.8032 153.325 16.8835 153.262 16.9329C153.2 16.9828 153.122 17.0123 153.031 17.0223C153.115 17.0394 153.178 17.065 153.22 17.0987C153.299 17.1619 153.338 17.2612 153.338 17.3966V17.5149C153.338 17.5277 153.339 17.541 153.341 17.5538C153.343 17.5667 153.346 17.58 153.351 17.5928L153.363 17.6303H153.029C153.018 17.5876 153.011 17.5268 153.007 17.4465C153.004 17.3667 152.996 17.3125 152.985 17.2845C152.968 17.2379 152.935 17.2056 152.887 17.1871C152.861 17.1762 152.821 17.169 152.768 17.1657L152.691 17.161H152.617V17.6303H152.268ZM152.088 16.2712C151.896 16.466 151.8 16.6968 151.8 16.9643C151.8 17.2417 151.898 17.4769 152.093 17.6707C152.287 17.8645 152.521 17.9614 152.796 17.9614C153.069 17.9614 153.303 17.8641 153.497 17.6693C153.691 17.4731 153.788 17.2384 153.788 16.9643C153.788 16.6978 153.691 16.4669 153.498 16.2712C153.303 16.0721 153.069 15.9724 152.796 15.9724C152.519 15.9724 152.283 16.0721 152.088 16.2712ZM153.639 17.8232C153.405 18.0484 153.124 18.161 152.796 18.161C152.457 18.161 152.172 18.046 151.939 17.8151C151.707 17.5847 151.591 17.3011 151.591 16.9643C151.591 16.6147 151.717 16.3239 151.967 16.0926C152.202 15.8759 152.479 15.7676 152.796 15.7676C153.128 15.7676 153.412 15.8845 153.647 16.1187C153.882 16.3524 154 16.6346 154 16.9643C154 17.3044 153.88 17.5904 153.639 17.8232Z" fill="#8491A0"/>
</g>
<defs>
<clipPath id="clip0_1_600">
<rect width="154" height="25" fill="white"/>
</clipPath>
</defs>
</svg>
