<svg width="32" height="32" viewBox="0 0 32 32" fill="none" xmlns="http://www.w3.org/2000/svg">
<path d="M17.2211 1.20013L30.799 14.778L31.9993 13.5779L18.4214 0L17.2211 1.20013Z" fill="#5221E6"/>
<path fill-rule="evenodd" clip-rule="evenodd" d="M19.2336 7.60121C18.4975 6.8651 17.3874 6.65132 16.4305 7.06139L7.00714 11.1C5.8941 11.577 5.03595 12.5058 4.65549 13.6596C3.76246 16.3681 2.60708 19.9467 1.67428 23.0058C1.20815 24.5345 0.795621 25.94 0.498919 27.0446C0.35075 27.5962 0.229365 28.0806 0.144391 28.4714C0.0652554 28.8357 0 29.1943 0 29.4528V29.8043L2.19436 31.9986H2.54586C2.80447 31.9986 3.16311 31.9335 3.52722 31.8544C3.91819 31.7693 4.40255 31.648 4.95417 31.4998C6.05877 31.2031 7.46417 30.7905 8.99285 30.3245C12.052 29.3917 15.6306 28.2362 18.3392 27.3433C19.493 26.9628 20.4217 26.1046 20.8988 24.9916L24.9374 15.5682C25.3474 14.6113 25.1336 13.5012 24.3975 12.7651L19.2336 7.60121ZM17.0992 8.6214C17.4181 8.48471 17.7881 8.55597 18.0335 8.80134L23.1974 13.9652C23.4428 14.2106 23.5141 14.5806 23.3773 14.8996L19.3387 24.3231C19.0518 24.9923 18.4955 25.5045 17.8076 25.7312C15.1052 26.6223 11.5399 27.7734 8.49784 28.7009C6.97594 29.1651 5.59147 29.5713 4.51389 29.8606C3.97444 30.0056 3.51965 30.1191 3.16676 30.1958C3.09215 30.212 3.02327 30.2264 2.9601 30.2388L11.6316 21.5672C12.5779 22.0194 13.7457 21.8534 14.5295 21.0696C15.5237 20.0754 15.5237 18.4635 14.5295 17.4693C13.5353 16.475 11.9233 16.475 10.9291 17.4693C10.1453 18.253 9.97941 19.4209 10.4315 20.3671L1.7599 29.0387C1.77238 28.9755 1.78668 28.9066 1.80291 28.8319C1.87961 28.4791 1.99315 28.0242 2.13806 27.4848C2.42749 26.4073 2.83366 25.0228 3.29772 23.5009C4.22533 20.4588 5.37634 16.8934 6.26738 14.1911C6.49416 13.5033 7.00635 12.9469 7.67571 12.66L17.0992 8.6214Z" fill="#5221E6"/>
</svg>
