<svg width="32" height="32" viewBox="0 0 32 32" fill="none" xmlns="http://www.w3.org/2000/svg">
<g id="Frame 16">
<g id="Group 63">
<path id="Vector" d="M29.8276 8.2356H26.8998L26.2272 5.20139C25.9399 3.90525 24.8106 3 23.4808 3H13.3164C11.9867 3 10.8573 3.90519 10.57 5.20133L9.89738 8.2356H9.20263V6.94096C9.20263 6.2114 8.608 5.6178 7.87712 5.6178H3.59138C2.8605 5.6178 2.26588 6.2114 2.26588 6.94096V8.2356H2.17231C0.9745 8.2356 0 9.20843 0 10.4042V25.0919C0 26.2877 0.9745 27.2605 2.17237 27.2605H4.39406H12.2471C14.0205 28.4073 16.1329 29.0741 18.3986 29.0741C20.6643 29.0741 22.7767 28.4073 24.55 27.2605H29.8276C31.0255 27.2605 32 26.2877 32 25.0919V10.4042C32 9.20843 31.0255 8.2356 29.8276 8.2356ZM11.7904 5.47093C11.9501 4.7508 12.5776 4.24779 13.3164 4.24779H23.4807C24.2196 4.24779 24.8471 4.75073 25.0067 5.47093L25.6196 8.2356H24.55C22.7766 7.08883 20.6643 6.42204 18.3986 6.42204C16.1329 6.42204 14.0205 7.08883 12.2471 8.2356H11.1775L11.7904 5.47093ZM3.51588 6.94096C3.51588 6.89941 3.54975 6.86565 3.59138 6.86565H7.87706C7.91869 6.86565 7.95256 6.89947 7.95256 6.94096V8.2356H3.51588V6.94096ZM5.01906 26.0126V19.2357C5.01906 18.8911 4.73925 18.6118 4.39406 18.6118C4.04887 18.6118 3.76906 18.8911 3.76906 19.2357V26.0127H2.17237C1.66381 26.0127 1.25 25.5996 1.25 25.0919V10.4042C1.25 9.89649 1.66381 9.48345 2.17237 9.48345H2.89094H8.57756H10.3991H10.6496C8.43769 11.5515 7.053 14.4912 7.053 17.748C7.053 21.0049 8.43769 23.9445 10.6496 26.0126H5.01906ZM24.1692 26.0127C23.4242 26.5326 22.606 26.9547 21.7333 27.2605C20.6888 27.6265 19.5667 27.8262 18.3986 27.8262C17.2304 27.8262 16.1082 27.6264 15.0638 27.2605C14.1911 26.9547 13.373 26.5326 12.6279 26.0127C10.0154 24.1892 8.303 21.1648 8.303 17.7481C8.303 14.3314 10.0154 11.3069 12.6279 9.48352C13.3729 8.96354 14.1911 8.54145 15.0638 8.23567C16.1083 7.86967 17.2304 7.66995 18.3986 7.66995C19.5667 7.66995 20.6889 7.86973 21.7333 8.23567C22.606 8.54145 23.4241 8.96354 24.1692 9.48352C26.7817 11.3069 28.4941 14.3314 28.4941 17.7481C28.4941 21.1648 26.7817 24.1892 24.1692 26.0127ZM30.75 25.0918C30.75 25.5996 30.3363 26.0126 29.8276 26.0126H26.1475C28.3594 23.9445 29.7441 21.0049 29.7441 17.748C29.7441 14.4912 28.3594 11.5515 26.1475 9.48345H26.398H29.8276C30.3363 9.48345 30.75 9.89649 30.75 10.4042V25.0918Z" fill="#5221E6"/>
<path id="Vector_2" d="M18.3704 10.1113C14.1225 10.1113 10.6667 13.5672 10.6667 17.8151C10.6667 22.0629 14.1225 25.5187 18.3704 25.5187C18.9893 25.5187 19.6053 25.445 20.2014 25.2997C20.5163 25.2229 20.7092 24.9054 20.6324 24.5906C20.5557 24.2758 20.2382 24.0827 19.9234 24.1596C19.4182 24.2828 18.8957 24.3452 18.3704 24.3452C14.7696 24.3452 11.8402 21.4158 11.8402 17.8151C11.8402 14.2144 14.7696 11.2849 18.3704 11.2849C21.9711 11.2849 24.9005 14.2143 24.9005 17.8151C24.9005 19.1275 24.513 20.3929 23.7797 21.4745C23.5979 21.7427 23.6679 22.1076 23.9362 22.2894C24.2042 22.4712 24.5692 22.4013 24.7511 22.133C25.6166 20.8564 26.0741 19.3633 26.0741 17.8152C26.0741 13.5672 22.6182 10.1113 18.3704 10.1113Z" fill="#5221E6"/>
<path id="Vector_3" d="M4.74073 11.2964C3.43367 11.2964 2.37036 12.3598 2.37036 13.6668C2.37036 14.9738 3.43373 16.0371 4.74073 16.0371C6.04773 16.0371 7.1111 14.9738 7.1111 13.6668C7.1111 12.3598 6.04773 11.2964 4.74073 11.2964ZM4.74073 14.764C4.13577 14.764 3.64356 14.2718 3.64356 13.6668C3.64356 13.0619 4.13577 12.5696 4.74073 12.5696C5.34569 12.5696 5.83791 13.0619 5.83791 13.6668C5.83791 14.2718 5.34575 14.764 4.74073 14.764Z" fill="#5221E6"/>
<path id="Vector_4" d="M23.6924 23.6246C23.6847 23.5872 23.6734 23.5499 23.6586 23.5138C23.6438 23.4782 23.6254 23.4439 23.6041 23.4119C23.5828 23.3793 23.5579 23.3491 23.5306 23.3218C23.5033 23.2946 23.4726 23.2697 23.4405 23.2478C23.4079 23.2264 23.3736 23.2081 23.338 23.1933C23.3024 23.1785 23.2652 23.1672 23.2272 23.1595C23.1508 23.1441 23.072 23.1441 22.9955 23.1595C22.9575 23.1672 22.9202 23.1785 22.8847 23.1933C22.8491 23.2081 22.8148 23.2264 22.7822 23.2478C22.7502 23.2697 22.72 23.2946 22.6921 23.3218C22.6648 23.3491 22.64 23.3793 22.6186 23.4119C22.5973 23.4439 22.5789 23.4782 22.5641 23.5138C22.5493 23.5499 22.538 23.5872 22.5303 23.6246C22.5226 23.6631 22.5185 23.7022 22.5185 23.7407C22.5185 23.7792 22.5226 23.8183 22.5303 23.8562C22.538 23.8941 22.5493 23.9315 22.5641 23.967C22.5789 24.0031 22.5973 24.0375 22.6186 24.0695C22.64 24.1021 22.6648 24.1323 22.6921 24.1595C22.72 24.1868 22.7501 24.2117 22.7822 24.233C22.8148 24.2543 22.8491 24.2727 22.8847 24.2875C22.9203 24.3023 22.9575 24.3136 22.9955 24.3213C23.034 24.329 23.0726 24.3331 23.1111 24.3331C23.1501 24.3331 23.1887 24.329 23.2272 24.3213C23.2652 24.3136 23.3025 24.3023 23.338 24.2875C23.3736 24.2727 23.408 24.2543 23.4405 24.233C23.4725 24.2117 23.5033 24.1868 23.5306 24.1595C23.6408 24.0494 23.7037 23.8965 23.7037 23.7407C23.7037 23.7022 23.7001 23.6631 23.6924 23.6246Z" fill="#5221E6"/>
</g>
</g>
</svg>
