<svg width="80" height="80" viewBox="0 0 80 80" fill="none" xmlns="http://www.w3.org/2000/svg">
<g clip-path="url(#clip0_0_92)">
<path d="M53.3893 4.62187C53.5719 4.62187 53.756 4.58452 53.9333 4.50452C54.3146 4.3339 54.7013 4.17249 55.0933 4.02453C55.7827 3.76187 56.1293 2.9925 55.8666 2.30453C55.6052 1.61516 54.8346 1.27391 54.1479 1.52984C53.7065 1.69781 53.2705 1.87922 52.8426 2.07125C52.1705 2.37265 51.8693 3.16187 52.1719 3.8339C52.3933 4.32843 52.8787 4.62187 53.3893 4.62187Z" fill="#D4C17F"/>
<path d="M53.3333 33.5377C54.0707 33.5377 54.6666 32.9418 54.6666 32.2044V31.9738C54.6666 31.6232 54.6893 31.2791 54.7333 30.9405C54.8293 30.2099 54.3146 29.5405 53.5866 29.4446C52.8346 29.3487 52.1866 29.8632 52.0893 30.5926C52.0307 31.0432 51.9999 31.5085 51.9999 31.974V32.2046C52 32.9418 52.596 33.5377 53.3333 33.5377Z" fill="#D4C17F"/>
<path d="M46.6666 33.8672C47.404 33.8672 47.9999 33.2698 47.9999 32.5339V31.1792C47.9999 30.4433 47.404 29.8459 46.6666 29.8459C45.9293 29.8459 45.3333 30.4433 45.3333 31.1792V32.5339C45.3333 33.2698 45.9293 33.8672 46.6666 33.8672Z" fill="#D4C17F"/>
<path d="M54.3227 12.7778C53.8933 13.0137 53.4733 13.2684 53.0694 13.5392C52.4574 13.9486 52.2921 14.7778 52.7015 15.3898C52.9588 15.7739 53.3815 15.9804 53.8108 15.9804C54.0668 15.9804 54.3241 15.9084 54.5508 15.7551C54.8935 15.5272 55.2468 15.3125 55.6094 15.1125C56.2535 14.7578 56.4894 13.9458 56.1347 13.3019C55.7786 12.6565 54.9693 12.4245 54.3227 12.7778Z" fill="#D4C17F"/>
<path d="M35.4107 12.6419C35.6627 13.0446 36.096 13.266 36.5401 13.266C36.7827 13.266 37.0281 13.2006 37.2468 13.0619C37.8709 12.6699 38.0601 11.8472 37.6682 11.2246C37.4162 10.8232 37.1549 10.4313 36.8802 10.0472C36.4523 9.44862 35.6217 9.30862 35.0202 9.73925C34.4202 10.1686 34.2829 11.0007 34.7109 11.5992C34.9546 11.9392 35.1881 12.2872 35.4107 12.6419Z" fill="#D4C17F"/>
<path d="M59.788 2.82191C59.8427 2.82191 59.9 2.81785 59.956 2.81129C60.368 2.75926 60.7854 2.71926 61.2066 2.68988C61.9425 2.64051 62.4972 2.00582 62.4493 1.27129C62.4013 0.536605 61.756 -0.0193316 61.0307 0.0298871C60.556 0.060512 60.0866 0.107231 59.6227 0.165824C58.8921 0.257855 58.3733 0.924417 58.4668 1.6552C58.5507 2.32848 59.1254 2.82191 59.788 2.82191Z" fill="#D4C17F"/>
<path d="M54.844 24.7218C54.344 25.2618 54.3746 26.1059 54.9133 26.6059C55.1721 26.8445 55.496 26.9618 55.8213 26.9618C56.1799 26.9618 56.536 26.8191 56.7999 26.5351C57.0772 26.2365 57.3826 25.9537 57.7079 25.6951C58.2852 25.2365 58.3811 24.3978 57.9225 23.8218C57.4652 23.2459 56.6252 23.1471 56.0493 23.6071C55.6186 23.9484 55.2133 24.3245 54.844 24.7218Z" fill="#D4C17F"/>
<path d="M42.7519 13.0619C42.9719 13.2005 43.2173 13.266 43.4599 13.266C43.904 13.266 44.3373 13.0446 44.5893 12.6419C44.8119 12.2872 45.0452 11.9392 45.2893 11.5992C45.7173 11.0007 45.5799 10.1686 44.9799 9.73925C44.3785 9.30862 43.5479 9.44862 43.1199 10.0472C42.8452 10.4313 42.5826 10.8232 42.3319 11.2246C41.9401 11.8472 42.1293 12.6699 42.7519 13.0619Z" fill="#D4C17F"/>
<path d="M53.3333 39.9739C54.0707 39.9739 54.6666 39.3766 54.6666 38.6406V37.9739C54.6666 37.238 54.0707 36.6406 53.3333 36.6406C52.596 36.6406 52.0001 37.238 52.0001 37.9739V38.6406C52.0001 39.3766 52.596 39.9739 53.3333 39.9739Z" fill="#D4C17F"/>
<path d="M46.6387 27.0911C46.7001 27.1005 46.7601 27.1044 46.8201 27.1044C47.476 27.1044 48.0494 26.6191 48.1413 25.9497C48.196 25.5391 48.2693 25.1338 48.3599 24.7338C48.524 24.0152 48.0732 23.3018 47.3546 23.1391C46.636 22.9765 45.9213 23.4258 45.7587 24.1444C45.6519 24.6204 45.564 25.103 45.4973 25.5911C45.3987 26.3205 45.9107 26.9925 46.6387 27.0911Z" fill="#D4C17F"/>
<path d="M37.5613 17.1793C37.6946 17.5739 37.8146 17.9725 37.9254 18.3779C38.0868 18.9711 38.6254 19.3619 39.2107 19.3619C39.3266 19.3619 39.444 19.346 39.5613 19.3139C39.7266 19.2699 39.8707 19.1899 39.9999 19.0954C40.1293 19.19 40.2732 19.27 40.4385 19.3139C40.5559 19.346 40.6732 19.3619 40.7891 19.3619C41.3745 19.3619 41.9132 18.9713 42.0745 18.3779C42.1851 17.9725 42.3038 17.5738 42.4385 17.1793C42.6771 16.4819 42.3026 15.7246 41.6065 15.4872C40.9665 15.2686 40.2918 15.5819 39.9998 16.174C39.7077 15.5819 39.0331 15.2686 38.3931 15.4872C37.696 15.7246 37.3227 16.4819 37.5613 17.1793Z" fill="#D4C17F"/>
<path d="M47.7854 8.20848C48.096 8.20848 48.408 8.10051 48.6601 7.88176C48.976 7.60707 49.3001 7.34035 49.6307 7.08582C50.2147 6.63645 50.3227 5.80051 49.8747 5.21645C49.4254 4.63239 48.588 4.52176 48.0054 4.97239C47.6307 5.26036 47.2654 5.55911 46.9107 5.86973C46.3548 6.35239 46.296 7.19504 46.7801 7.75113C47.0427 8.05395 47.4133 8.20848 47.7854 8.20848Z" fill="#D4C17F"/>
<path d="M48.8213 17.5419C48.528 17.9313 48.2507 18.334 47.9907 18.7472C47.5974 19.3699 47.7854 20.1939 48.408 20.5872C48.6294 20.7246 48.8733 20.7913 49.1174 20.7913C49.5601 20.7913 49.9933 20.5713 50.2468 20.1686C50.4682 19.818 50.7027 19.4766 50.9521 19.1472C51.3948 18.5593 51.2774 17.7232 50.6894 17.2793C50.1001 16.8352 49.264 16.9566 48.8213 17.5419Z" fill="#D4C17F"/>
<path d="M61.3027 10.6939C60.8094 10.7313 60.3241 10.7899 59.8454 10.8686C59.1186 10.9886 58.6268 11.6753 58.7468 12.4019C58.8535 13.0552 59.4174 13.5178 60.06 13.5178C60.1321 13.5178 60.2041 13.5125 60.2774 13.5005C60.6841 13.4337 61.0933 13.3845 61.508 13.3525C62.2427 13.2952 62.7921 12.6539 62.7347 11.9192C62.6772 11.1858 62.0519 10.6313 61.3027 10.6939Z" fill="#D4C17F"/>
<path d="M66.236 2.92045C66.6507 2.98717 67.0639 3.06576 67.4719 3.15514C67.5692 3.17654 67.6639 3.18576 67.7586 3.18576C68.3719 3.18576 68.9227 2.7617 69.06 2.13904C69.2174 1.41905 68.7627 0.708422 68.0427 0.551079C67.5841 0.449829 67.1227 0.36311 66.6547 0.288423C65.928 0.168423 65.2453 0.668422 65.1294 1.39514C65.0133 2.12186 65.508 2.80576 66.236 2.92045Z" fill="#D4C17F"/>
<path d="M68.5172 11.6525C68.0572 11.4885 67.5892 11.3419 67.1158 11.2166C66.4078 11.0325 65.6758 11.4525 65.4852 12.1645C65.2972 12.8766 65.7211 13.6058 66.4331 13.7952C66.8345 13.9005 67.2291 14.0231 67.6158 14.1631C67.7652 14.2164 67.9158 14.2417 68.0664 14.2417C68.6131 14.2417 69.1264 13.9017 69.3211 13.3577C69.5706 12.6645 69.2092 11.9005 68.5172 11.6525Z" fill="#D4C17F"/>
<path d="M62.1239 21.3205C61.388 21.3578 60.8213 21.9831 60.8586 22.7178C60.8946 23.4538 61.4719 24.0138 62.256 23.9831C62.6653 23.9631 63.088 23.9752 63.4933 24.0164C63.54 24.0217 63.5866 24.0231 63.6321 24.0231C64.308 24.0231 64.8853 23.5125 64.9574 22.8272C65.032 22.0939 64.4988 21.4392 63.7667 21.3631C63.2266 21.3085 62.668 21.2913 62.1239 21.3205Z" fill="#D4C17F"/>
<path d="M77.6813 8.87245C77.9439 9.16042 78.3053 9.30714 78.6666 9.30714C78.988 9.30714 79.3092 9.19245 79.5652 8.95917C80.1092 8.46323 80.1478 7.61917 79.6519 7.07511C79.4919 6.90042 79.3292 6.72839 79.1652 6.56042C78.6478 6.03371 77.8052 6.02714 77.2798 6.54167C76.7519 7.05636 76.7452 7.90026 77.2584 8.42698C77.4027 8.57245 77.5439 8.72182 77.6813 8.87245Z" fill="#D4C17F"/>
<path d="M57.3333 50.6404H41.3334C40.596 50.6404 40.0001 51.2377 40.0001 51.9737C40.0001 52.7096 40.596 53.307 41.3334 53.307H57.3333C61.0719 53.307 64 50.379 64 46.6402V43.9735C64 43.2376 63.4041 42.6403 62.6667 42.6403H17.3334C16.5961 42.6403 16.0001 43.2376 16.0001 43.9735V46.6402C16.0001 50.3788 18.9281 53.307 22.6668 53.307H34.6668V59.9737C34.6668 60.7096 35.2627 61.3069 36.0001 61.3069C36.7374 61.3069 37.3334 60.7096 37.3334 59.9737V51.9737C37.3334 51.2377 36.7374 50.6404 36.0001 50.6404H22.6668C20.4228 50.6404 18.6668 48.8831 18.6668 46.6404V45.3071H61.3335V46.6404C61.3333 48.8831 59.5772 50.6404 57.3333 50.6404Z" fill="#D4C17F"/>
<path d="M70.6466 31.4018C70.6599 31.5898 70.6666 31.7818 70.6666 31.9739C70.6666 32.7098 71.2625 33.3071 71.9999 33.3071C72.7372 33.3071 73.3332 32.7098 73.3332 31.9739C73.3332 31.7179 73.3238 31.4645 73.3052 31.2125C73.2532 30.4792 72.6292 29.9245 71.8811 29.9765C71.1466 30.0298 70.5946 30.6671 70.6466 31.4018Z" fill="#D4C17F"/>
<path d="M67.8306 24.0831C67.3439 24.6363 67.3974 25.4777 67.9492 25.9657C68.2586 26.2377 68.5478 26.5351 68.8092 26.8498C69.0746 27.1671 69.4533 27.3298 69.836 27.3298C70.136 27.3298 70.4386 27.2285 70.688 27.0218C71.2533 26.5498 71.3307 25.7098 70.8586 25.1432C70.5107 24.7245 70.1239 24.3273 69.7119 23.9645C69.1613 23.4792 68.3186 23.5298 67.8306 24.0831Z" fill="#D4C17F"/>
<path d="M41.3334 30.5657C41.3334 29.8298 40.7374 29.2324 40.0001 29.2324C39.2627 29.2324 38.6668 29.8298 38.6668 30.5657V32.0484C38.6668 32.7843 39.2627 33.3816 40.0001 33.3816C40.7374 33.3816 41.3334 32.7843 41.3334 32.0484V30.5657Z" fill="#D4C17F"/>
<path d="M40.0001 36.6404C39.2627 36.6404 38.6668 37.2377 38.6668 37.9737V38.6404C38.6668 39.3763 39.2627 39.9737 40.0001 39.9737C40.7374 39.9737 41.3334 39.3763 41.3334 38.6404V37.9737C41.3334 37.2377 40.7373 36.6404 40.0001 36.6404Z" fill="#D4C17F"/>
<path d="M45.3333 38.6404C45.3333 39.3763 45.9293 39.9737 46.6666 39.9737C47.404 39.9737 47.9999 39.3763 47.9999 38.6404V37.9737C47.9999 37.2377 47.404 36.6404 46.6666 36.6404C45.9293 36.6404 45.3333 37.2377 45.3333 37.9737V38.6404Z" fill="#D4C17F"/>
<path d="M41.3333 23.9739C41.3333 23.7632 41.336 23.5553 41.3427 23.3459C41.3586 22.7765 41.0107 22.2873 40.5121 22.0833C40.4615 22.0606 40.4041 22.0606 40.3507 22.0447C40.2507 22.0179 40.156 21.9779 40.048 21.9753C40.0348 21.9739 40.0227 21.9739 40.008 21.9739C40.0054 21.9739 40.0027 21.9753 40.0001 21.9753C39.9974 21.9753 39.9948 21.9739 39.9921 21.9739C39.9774 21.9739 39.9654 21.9739 39.9521 21.9753C39.8441 21.9779 39.748 22.0179 39.6494 22.0447C39.5962 22.0606 39.5374 22.0606 39.488 22.0833C38.9895 22.2873 38.6413 22.7765 38.6574 23.3459C38.6641 23.5553 38.6668 23.7632 38.6668 23.9739V24.6406C38.6668 25.3765 39.2627 25.9739 40.0001 25.9739C40.7374 25.9739 41.3333 25.3765 41.3333 24.6406V23.9739Z" fill="#D4C17F"/>
<path d="M32.0001 38.6404C32.0001 39.3763 32.596 39.9737 33.3334 39.9737C34.0707 39.9737 34.6667 39.3763 34.6667 38.6404V37.9737C34.6667 37.2377 34.0707 36.6404 33.3334 36.6404C32.596 36.6404 32.0001 37.2377 32.0001 37.9737V38.6404Z" fill="#D4C17F"/>
<path d="M33.3334 33.8672C34.0707 33.8672 34.6667 33.2698 34.6667 32.5339V31.1792C34.6667 30.4433 34.0707 29.8459 33.3334 29.8459C32.596 29.8459 32.0001 30.4433 32.0001 31.1792V32.5339C32.0001 33.2698 32.596 33.8672 33.3334 33.8672Z" fill="#D4C17F"/>
<path d="M28.0001 38.6404V37.9737C28.0001 37.2377 27.4042 36.6404 26.6668 36.6404C25.9295 36.6404 25.3335 37.2377 25.3335 37.9737V38.6404C25.3335 39.3763 25.9295 39.9737 26.6668 39.9737C27.4042 39.9737 28.0001 39.3765 28.0001 38.6404Z" fill="#D4C17F"/>
<path d="M9.31202 27.0219C9.56139 27.2286 9.86264 27.3298 10.164 27.3298C10.5467 27.3298 10.9254 27.1672 11.1908 26.8498C11.4522 26.5351 11.7414 26.2378 12.0508 25.9658C12.6028 25.4778 12.6561 24.6364 12.1694 24.0831C11.684 23.5298 10.8414 23.4764 10.288 23.9644C9.87592 24.327 9.4892 24.7244 9.13998 25.1431C8.66936 25.7098 8.7467 26.5498 9.31202 27.0219Z" fill="#D4C17F"/>
<path d="M73.3333 63.9739H45.3333V57.3072C45.3333 56.5712 44.7374 55.9739 44.0001 55.9739C43.2627 55.9739 42.6668 56.5712 42.6668 57.3072V65.3071C42.6668 66.0431 43.2627 66.6404 44.0001 66.6404H72V73.3071C72 75.5124 70.2053 77.3071 68 77.3071H12.0001C9.79483 77.3071 8.00014 75.5124 8.00014 73.3071V66.6404H38.7774C39.5148 66.6404 40.1107 66.0431 40.1107 65.3071C40.1107 64.5712 39.5148 63.9739 38.7774 63.9739H6.66671C5.92936 63.9739 5.33343 64.5712 5.33343 65.3071V73.3071C5.33343 76.9831 8.32405 79.9738 12.0001 79.9738H68C71.6759 79.9738 74.6667 76.9832 74.6667 73.3071V65.3071C74.6666 64.5712 74.0706 63.9739 73.3333 63.9739Z" fill="#D4C17F"/>
<path d="M32.0001 70.6404V73.3071C32.0001 74.0431 32.596 74.6404 33.3334 74.6404C34.0707 74.6404 34.6667 74.0431 34.6667 73.3071V70.6404C34.6667 69.9045 34.0707 69.3071 33.3334 69.3071C32.596 69.3071 32.0001 69.9045 32.0001 70.6404Z" fill="#D4C17F"/>
<path d="M1.39344 25.9752C1.3775 25.9738 1.36141 25.9738 1.34547 25.9738C0.63219 25.9738 0.0387539 26.5405 0.0148477 27.2605C0.00547271 27.4978 0.000160217 27.7352 0.000160217 27.9738C0.000160217 28.7097 0.596097 29.307 1.33344 29.307C2.07078 29.307 2.66672 28.7097 2.66672 27.9738C2.66672 27.7658 2.67203 27.5605 2.67875 27.3538C2.70406 26.6178 2.12938 26.0005 1.39344 25.9752Z" fill="#D4C17F"/>
<path d="M7.15343 17.4139C7.45202 17.1259 7.7628 16.8512 8.0828 16.5898C8.65342 16.1231 8.73874 15.2831 8.27217 14.7139C7.80686 14.1445 6.96686 14.0565 6.39624 14.5245C6.0189 14.8339 5.65218 15.1578 5.30296 15.4965C4.77234 16.0072 4.75765 16.8512 5.26827 17.3819C5.52968 17.6525 5.8789 17.7886 6.22827 17.7886C6.5614 17.7884 6.89608 17.6645 7.15343 17.4139Z" fill="#D4C17F"/>
<path d="M3.62812 19.6031C2.97078 19.2751 2.16672 19.539 1.83875 20.1978C1.62016 20.6325 1.41735 21.0792 1.2361 21.5337C0.962815 22.219 1.2961 22.9937 1.97875 23.267C2.14141 23.3323 2.30812 23.3629 2.47344 23.3629C3.00281 23.3629 3.50406 23.0456 3.71203 22.5243C3.86531 22.139 4.03609 21.7617 4.2214 21.3923C4.55203 20.7339 4.28671 19.9339 3.62812 19.6031Z" fill="#D4C17F"/>
<path d="M6.02937 5.56315C6.25468 5.56315 6.48406 5.5058 6.69343 5.3858C7.05484 5.17783 7.4214 4.98174 7.79608 4.79908C8.45608 4.47377 8.72811 3.67377 8.40405 3.01378C8.07874 2.35237 7.27734 2.08175 6.61874 2.40581C6.19202 2.61518 5.77343 2.83784 5.36281 3.07378C4.72546 3.44174 4.50547 4.25643 4.87343 4.89518C5.12015 5.32315 5.56937 5.56315 6.02937 5.56315Z" fill="#D4C17F"/>
<path d="M18.6667 70.6404V73.3071C18.6667 74.0431 19.2626 74.6404 20 74.6404C20.7373 74.6404 21.3332 74.0431 21.3332 73.3071V70.6404C21.3332 69.9045 20.7373 69.3071 20 69.3071C19.2626 69.3071 18.6667 69.9045 18.6667 70.6404Z" fill="#D4C17F"/>
<path d="M78.0212 23.2671C78.7039 22.9939 79.0372 22.2192 78.7639 21.5339C78.5825 21.0792 78.3798 20.6325 78.1612 20.1979C77.8319 19.5393 77.0306 19.2765 76.3719 19.6032C75.7133 19.9339 75.4478 20.7339 75.7786 21.3926C75.9639 21.762 76.1345 22.1393 76.288 22.5246C76.4959 23.046 76.9973 23.3632 77.5253 23.3632C77.6919 23.3631 77.8586 23.3324 78.0212 23.2671Z" fill="#D4C17F"/>
<path d="M79.9853 27.2604C79.9612 26.523 79.308 25.9324 78.6067 25.9751C77.8708 26.0004 77.2961 26.6177 77.3214 27.3537C77.3281 27.5604 77.3334 27.7657 77.3334 27.9737C77.3334 28.7096 77.9294 29.307 78.6667 29.307C79.4041 29.307 80 28.7096 80 27.9737C80 27.7351 79.9945 27.4977 79.9853 27.2604Z" fill="#D4C17F"/>
<path d="M74.6359 3.07389C74.2266 2.83795 73.808 2.6153 73.3813 2.40592C72.7253 2.08327 71.9213 2.35389 71.5959 3.01389C71.2719 3.67389 71.5439 4.47389 72.2039 4.7992C72.5786 4.98185 72.9453 5.17795 73.3053 5.38592C73.5159 5.50592 73.7453 5.56326 73.9694 5.56326C74.4308 5.56326 74.88 5.32326 75.1267 4.89529C75.4945 4.25654 75.2745 3.44186 74.6359 3.07389Z" fill="#D4C17F"/>
<path d="M61.3333 73.3071V70.6404C61.3333 69.9045 60.7374 69.3071 60 69.3071C59.2627 69.3071 58.6668 69.9045 58.6668 70.6404V73.3071C58.6668 74.0431 59.2627 74.6404 60 74.6404C60.7374 74.6404 61.3333 74.0431 61.3333 73.3071Z" fill="#D4C17F"/>
<path d="M48.0001 73.3071V70.6404C48.0001 69.9045 47.4041 69.3071 46.6668 69.3071C45.9294 69.3071 45.3335 69.9045 45.3335 70.6404V73.3071C45.3335 74.0431 45.9294 74.6404 46.6668 74.6404C47.404 74.6404 48.0001 74.0431 48.0001 73.3071Z" fill="#D4C17F"/>
<path d="M73.6039 14.5245C73.0319 14.0565 72.1919 14.1445 71.728 14.7139C71.2613 15.2833 71.3466 16.1233 71.916 16.5898C72.2374 16.8512 72.548 17.1258 72.8466 17.4139C73.1039 17.6645 73.4386 17.7886 73.7719 17.7886C74.1213 17.7886 74.4692 17.6526 74.7319 17.3819C75.2425 16.8512 75.2278 16.0072 74.6972 15.4965C74.348 15.1578 73.9813 14.8339 73.6039 14.5245Z" fill="#D4C17F"/>
<path d="M8.11874 29.9765C7.35733 29.9259 6.74671 30.4791 6.69343 31.2124C6.67609 31.4644 6.66671 31.7177 6.66671 31.9738C6.66671 32.7097 7.26265 33.3071 7.99999 33.3071C8.73733 33.3071 9.33327 32.7097 9.33327 31.9738C9.33327 31.7818 9.33999 31.5898 9.35327 31.4018C9.40546 30.6671 8.85342 30.0298 8.11874 29.9765Z" fill="#D4C17F"/>
<path d="M26.4134 29.4445C25.6854 29.5405 25.1707 30.2098 25.2667 30.9405C25.3107 31.2791 25.3334 31.6231 25.3334 31.9737V32.2044C25.3334 32.9417 25.9293 33.5377 26.6667 33.5377C27.404 33.5377 28 32.9417 28 32.2044V31.9737C28 31.5084 27.9706 31.0431 27.9106 30.5923C27.8134 29.8631 27.1573 29.3472 26.4134 29.4445Z" fill="#D4C17F"/>
<path d="M24.9067 4.02453C25.2987 4.17249 25.6853 4.3339 26.0667 4.50452C26.244 4.58452 26.4281 4.62187 26.6107 4.62187C27.1201 4.62187 27.6067 4.32859 27.8281 3.8339C28.1307 3.16187 27.8295 2.3725 27.1574 2.07125C26.7295 1.87922 26.2934 1.69797 25.8521 1.52984C25.1681 1.27391 24.3948 1.61516 24.1335 2.30453C23.8707 2.9925 24.2173 3.76187 24.9067 4.02453Z" fill="#D4C17F"/>
<path d="M24.3907 15.1125C24.7521 15.3125 25.1067 15.5272 25.4493 15.7551C25.6773 15.9084 25.9334 15.9804 26.1893 15.9804C26.6187 15.9804 27.0413 15.7737 27.2987 15.3898C27.7081 14.7778 27.5428 13.9486 26.9307 13.5392C26.5254 13.2686 26.1067 13.0139 25.6774 12.7778C25.0307 12.4245 24.2215 12.6565 23.8654 13.3019C23.5107 13.9458 23.7467 14.7578 24.3907 15.1125Z" fill="#D4C17F"/>
<path d="M1.33344 9.30715C1.69484 9.30715 2.05609 9.16043 2.31875 8.87247C2.45609 8.72184 2.5975 8.57247 2.7414 8.42716C3.25468 7.90044 3.24671 7.05653 2.72 6.54185C2.19594 6.02716 1.35328 6.03654 0.834688 6.5606C0.670626 6.72857 0.50797 6.9006 0.347971 7.07528C-0.147966 7.61935 -0.109372 8.46325 0.434689 8.95934C0.690782 9.19247 1.01203 9.30715 1.33344 9.30715Z" fill="#D4C17F"/>
<path d="M22.292 25.6952C22.6173 25.9537 22.9226 26.2366 23.2 26.5352C23.464 26.8192 23.82 26.9619 24.1786 26.9619C24.5026 26.9619 24.8279 26.8445 25.0865 26.6059C25.6253 26.1059 25.6559 25.2619 25.1559 24.7219C24.7865 24.3245 24.3812 23.9486 23.9506 23.6072C23.3706 23.1486 22.5333 23.2458 22.0773 23.8219C21.6187 24.3978 21.7147 25.2366 22.292 25.6952Z" fill="#D4C17F"/>
<path d="M29.7534 20.1684C30.0067 20.5711 30.4401 20.7911 30.8828 20.7911C31.1268 20.7911 31.3707 20.7243 31.5921 20.587C32.2148 20.1937 32.4028 19.3696 32.0095 18.747C31.7481 18.3337 31.4707 17.9311 31.1788 17.5417C30.7348 16.9564 29.9003 16.835 29.3109 17.279C28.7229 17.7231 28.6056 18.559 29.0482 19.147C29.2973 19.4765 29.532 19.8178 29.7534 20.1684Z" fill="#D4C17F"/>
<path d="M30.3693 7.08582C30.6999 7.34051 31.024 7.60723 31.3399 7.88176C31.592 8.10176 31.904 8.20848 32.2146 8.20848C32.5867 8.20848 32.9573 8.05379 33.2199 7.75113C33.704 7.1952 33.6453 6.35254 33.0893 5.86973C32.7346 5.55911 32.3693 5.26036 31.9946 4.97239C31.412 4.52176 30.576 4.63239 30.1253 5.21645C29.6773 5.80051 29.7854 6.6366 30.3693 7.08582Z" fill="#D4C17F"/>
<path d="M12.2414 3.18582C12.3361 3.18582 12.4308 3.17645 12.5267 3.1552C12.9361 3.06582 13.3494 2.98723 13.764 2.92051C14.492 2.80582 14.9867 2.12192 14.8708 1.3952C14.7561 0.668483 14.0748 0.167234 13.3454 0.288483C12.8775 0.363171 12.4148 0.449889 11.9575 0.551139C11.2375 0.708483 10.7828 1.41911 10.9401 2.1391C11.0773 2.76192 11.6281 3.18582 12.2414 3.18582Z" fill="#D4C17F"/>
<path d="M18.7934 2.68987C19.2148 2.71925 19.632 2.75925 20.044 2.81128C20.1 2.818 20.1573 2.8219 20.212 2.8219C20.8747 2.8219 21.4493 2.32862 21.5332 1.65519C21.6265 0.924562 21.1079 0.257844 20.3773 0.165813C19.9132 0.107219 19.444 0.0605007 18.9706 0.0298758C18.252 -0.0234054 17.5986 0.536593 17.5506 1.27128C17.5028 2.00581 18.0573 2.6405 18.7934 2.68987Z" fill="#D4C17F"/>
<path d="M32.6454 23.1392C31.9268 23.3018 31.476 24.0151 31.6387 24.7338C31.7307 25.1338 31.8027 25.5391 31.8587 25.9498C31.9507 26.6191 32.5227 27.1044 33.1801 27.1044C33.2401 27.1044 33.3001 27.1004 33.3601 27.0912C34.0895 26.9926 34.6015 26.3205 34.5027 25.5912C34.436 25.1032 34.3481 24.6205 34.2413 24.1445C34.0787 23.4271 33.3601 22.9777 32.6454 23.1392Z" fill="#D4C17F"/>
<path d="M11.9334 14.2419C12.0828 14.2419 12.2348 14.2165 12.384 14.1633C12.7708 14.0233 13.1654 13.9006 13.5667 13.7953C14.2787 13.6059 14.7026 12.8767 14.5147 12.1647C14.3253 11.4526 13.5947 11.0326 12.884 11.2167C12.4108 11.342 11.9426 11.4887 11.4826 11.6526C10.7906 11.9006 10.4294 12.6647 10.6786 13.3579C10.8734 13.9019 11.3867 14.2419 11.9334 14.2419Z" fill="#D4C17F"/>
<path d="M18.492 13.3525C18.9067 13.3845 19.3161 13.4339 19.7226 13.5004C19.7959 13.5125 19.8679 13.5178 19.94 13.5178C20.5814 13.5178 21.1467 13.0551 21.2532 12.4018C21.3732 11.6751 20.8812 10.9886 20.1547 10.8686C19.6761 10.79 19.1906 10.7312 18.6973 10.6939C17.972 10.6298 17.3226 11.1845 17.2653 11.9192C17.2081 12.6539 17.7573 13.2951 18.492 13.3525Z" fill="#D4C17F"/>
<path d="M16.3681 24.0231C16.4134 24.0231 16.4601 24.0217 16.5067 24.0164C16.912 23.975 17.3347 23.9631 17.744 23.9831C18.5108 24.0178 19.1054 23.4537 19.1414 22.7178C19.1787 21.9831 18.612 21.3578 17.8761 21.3204C17.3308 21.2911 16.772 21.3084 16.2334 21.3631C15.5014 21.439 14.9681 22.0937 15.0428 22.8272C15.1147 23.5125 15.692 24.0231 16.3681 24.0231Z" fill="#D4C17F"/>
</g>
<defs>
<clipPath id="clip0_0_92">
<rect width="80" height="80" fill="white"/>
</clipPath>
</defs>
</svg>
