<svg width="15" height="21" viewBox="0 0 15 21" fill="none" xmlns="http://www.w3.org/2000/svg">
<path d="M7.56835 4.60217C6.08837 4.60217 4.88376 5.80679 4.88376 7.28676C4.88376 8.76674 6.08837 9.97135 7.56835 9.97135C9.04832 9.97135 10.2529 8.76674 10.2529 7.28676C10.2529 5.80679 9.04832 4.60217 7.56835 4.60217ZM7.56835 9.20432C6.511 9.20432 5.65078 8.3441 5.65078 7.28676C5.65078 6.22942 6.511 5.3692 7.56835 5.3692C8.62569 5.3692 9.48591 6.22942 9.48591 7.28676C9.48591 8.3441 8.62569 9.20432 7.56835 9.20432Z" fill="white"/>
<path d="M12.7012 2.15419C11.3121 0.765108 9.46508 0 7.50072 0C5.53599 0 3.68938 0.765108 2.3003 2.15419C-0.270388 4.72449 -0.589854 9.56059 1.60844 12.4906L7.50072 21L13.3842 12.5025C15.5913 9.56059 15.2718 4.72449 12.7012 2.15419ZM12.7621 12.0542L7.50072 19.6523L2.23088 12.0423C0.236999 9.38379 0.522716 5.01635 2.84297 2.69648C4.08708 1.45236 5.74117 0.767025 7.50072 0.767025C9.26028 0.767025 10.9144 1.45236 12.1589 2.69648C14.4791 5.01635 14.7648 9.38379 12.7621 12.0542Z" fill="white"/>
</svg>
