<svg width="57" height="57" viewBox="0 0 57 57" fill="none" xmlns="http://www.w3.org/2000/svg">
<path id="Union" fill-rule="evenodd" clip-rule="evenodd" d="M56.7375 28.5445C56.7375 44.0085 44.2015 56.5445 28.7375 56.5445C13.2736 56.5445 0.737549 44.0085 0.737549 28.5445C0.737549 13.0806 13.2736 0.544525 28.7375 0.544525C44.2015 0.544525 56.7375 13.0806 56.7375 28.5445ZM55.6175 28.5445C55.6175 43.3899 43.583 55.4245 28.7375 55.4245C13.8921 55.4245 1.85755 43.3899 1.85755 28.5445C1.85755 13.6991 13.8921 1.66453 28.7375 1.66453C43.583 1.66453 55.6175 13.6991 55.6175 28.5445ZM35.4712 20.1445L43.8574 28.5377L43.8507 28.5444L43.8575 28.5513L35.4713 36.9445L33.9864 35.4584L39.8378 29.6022H15.0175V27.5005H39.8512L33.9863 21.6307L35.4712 20.1445Z" fill="black"/>
</svg>
